# xmcd
#
# Track frame offsets:
#	150
#	12605
#	23740
#	35392
#	45290
#	57327
#	68555
#	78432
#	89460
#	101667
#	114460
#	125185
#	136590
#	147290
#	160215
#	169335
#	181502
#	193557
#	204910
#	215557
#	227650
#	242960
#	254777
#	266400
#	277187
#	287945
#	299975
#
# Disc length: 4166 seconds
#
# Revision: 1
# Processed by: cddbd v1.4PL0 Copyright (c) Steve Scherf et al.
# Submitted via: audiograbber 1.80
#
DISCID=9b10441b
DTITLE=kitty wells - the queen of country music disc 3
DYEAR=1900
DGENRE=
TTITLE0=oh! so many years (& webb pierce) 1956
TTITLE1=one week later (& webb pierce) 1957
TTITLE2=when i'm with you (& webb pierce) 1957
TTITLE3=can you find it in your heart (& webb pierce) 1956
TTITLE4=repenting 1956
TTITLE5=i guess i'll go on dreaming 1957
TTITLE6=each day 1957
TTITLE7=the pace that kills 1957
TTITLE8=a change of heart 1957
TTITLE9=stubborn heart 1957
TTITLE10=standing room only 1957
TTITLE11=a mansion on the hill 1957
TTITLE12=your wild life's gonna get you down 1987
TTITLE13=right or wrong 1957
TTITLE14=the winner of your heart 1957
TTITLE15=dancing with a stranger 1957
TTITLE16=three ways (to love you) 1957
TTITLE17=she's no angel 1957
TTITLE18=broken marriage vows (& ray chisp) 1957
TTITLE19=what about you 1987
TTITLE20=sweeter than the flowers 1958
TTITLE21=you can't conceal a broken heart 1958
TTITLE22=just when i needed you 1958
TTITLE23=lonely street 1958
TTITLE24=that's me without you 1958
TTITLE25=cheated out love 1958
TTITLE26=the waltz of the angels 1958
EXTD=
EXTT0=
EXTT1=
EXTT2=
EXTT3=
EXTT4=
EXTT5=
EXTT6=
EXTT7=
EXTT8=
EXTT9=
EXTT10=
EXTT11=
EXTT12=
EXTT13=
EXTT14=
EXTT15=
EXTT16=
EXTT17=
EXTT18=
EXTT19=
EXTT20=
EXTT21=
EXTT22=
EXTT23=
EXTT24=
EXTT25=
EXTT26=
PLAYORDER=
